<svg xmlns="http://www.w3.org/2000/svg" viewBox="0 0 192 192" width="192" height="192">
  <defs>
    <linearGradient id="bgGrad192" x1="0%" y1="0%" x2="100%" y2="100%">
      <stop offset="0%" stop-color="#FFF3EC"/>
      <stop offset="100%" stop-color="#FCE4D8"/>
    </linearGradient>
    <linearGradient id="coralGrad192" x1="0%" y1="0%" x2="100%" y2="100%">
      <stop offset="0%" stop-color="#F28B82"/>
      <stop offset="100%" stop-color="#E97878"/>
    </linearGradient>
  </defs>
  <rect width="192" height="192" rx="48" fill="url(#bgGrad192)"/>
  <path d="M96 146 C82 131, 52 107, 52 77 C52 58, 68 45, 86 45 C91 45, 94 47, 96 50 C98 47, 101 45, 106 45 C124 45, 140 58, 140 77 C140 107, 110 131, 96 146 Z" fill="url(#coralGrad192)"/>
  <ellipse cx="85" cy="79" rx="4" ry="5.5" fill="#FFFFFF"/>
  <circle cx="86" cy="78" r="1.5" fill="#292525"/>
  <ellipse cx="107" cy="79" rx="4" ry="5.5" fill="#FFFFFF"/>
  <circle cx="108" cy="78" r="1.5" fill="#292525"/>
  <circle cx="77" cy="85" r="4.5" fill="#FFAAA6" opacity="0.8"/>
  <circle cx="115" cy="85" r="4.5" fill="#FFAAA6" opacity="0.8"/>
  <path d="M91 88 Q96 94 101 88" fill="none" stroke="#FFFFFF" stroke-width="2" stroke-linecap="round"/>
</svg>
